<mxfile host="app.diagrams.net" modified="2023-01-19T03:35:39.891Z" agent="5.0 (X11; Linux x86_64) AppleWebKit/537.36 (KHTML, like Gecko) Chrome/108.0.0.0 Safari/537.36" etag="yd0U9l77_doSpIGFbgKk" version="20.8.5" type="github">
  <diagram id="C5RBs43oDa-KdzZeNtuy" name="Page-1">
    <mxGraphModel dx="2420" dy="927" grid="1" gridSize="10" guides="1" tooltips="1" connect="1" arrows="1" fold="1" page="1" pageScale="1" pageWidth="827" pageHeight="1169" math="0" shadow="0">
      <root>
        <mxCell id="WIyWlLk6GJQsqaUBKTNV-0" />
        <mxCell id="WIyWlLk6GJQsqaUBKTNV-1" parent="WIyWlLk6GJQsqaUBKTNV-0" />
        <mxCell id="TCwCIjLNXAIV23vm3c6Q-21" value="" style="group" vertex="1" connectable="0" parent="WIyWlLk6GJQsqaUBKTNV-1">
          <mxGeometry x="70" y="690" width="260" height="110.5" as="geometry" />
        </mxCell>
        <mxCell id="TCwCIjLNXAIV23vm3c6Q-2" value="model" style="shape=umlFrame;whiteSpace=wrap;html=1;" vertex="1" parent="TCwCIjLNXAIV23vm3c6Q-21">
          <mxGeometry width="260" height="110.5" as="geometry" />
        </mxCell>
        <mxCell id="TCwCIjLNXAIV23vm3c6Q-5" value="User" style="shape=umlFrame;whiteSpace=wrap;html=1;width=90;height=25;" vertex="1" parent="TCwCIjLNXAIV23vm3c6Q-21">
          <mxGeometry x="80" y="10.5" width="150" height="85" as="geometry" />
        </mxCell>
        <mxCell id="TCwCIjLNXAIV23vm3c6Q-6" value="User" style="html=1;" vertex="1" parent="TCwCIjLNXAIV23vm3c6Q-21">
          <mxGeometry x="90" y="45.5" width="50" height="30" as="geometry" />
        </mxCell>
        <mxCell id="TCwCIjLNXAIV23vm3c6Q-7" value="Filter" style="html=1;" vertex="1" parent="TCwCIjLNXAIV23vm3c6Q-21">
          <mxGeometry x="160" y="45.5" width="50" height="30" as="geometry" />
        </mxCell>
        <mxCell id="TCwCIjLNXAIV23vm3c6Q-23" value="" style="group" vertex="1" connectable="0" parent="WIyWlLk6GJQsqaUBKTNV-1">
          <mxGeometry x="-50" y="370" width="550" height="250" as="geometry" />
        </mxCell>
        <mxCell id="TCwCIjLNXAIV23vm3c6Q-0" value="business" style="shape=umlFrame;whiteSpace=wrap;html=1;" vertex="1" parent="TCwCIjLNXAIV23vm3c6Q-23">
          <mxGeometry width="550" height="250" as="geometry" />
        </mxCell>
        <mxCell id="TCwCIjLNXAIV23vm3c6Q-22" value="" style="group" vertex="1" connectable="0" parent="TCwCIjLNXAIV23vm3c6Q-23">
          <mxGeometry x="40" y="50" width="480" height="180" as="geometry" />
        </mxCell>
        <mxCell id="TCwCIjLNXAIV23vm3c6Q-8" value="User" style="shape=umlFrame;whiteSpace=wrap;html=1;width=90;height=25;" vertex="1" parent="TCwCIjLNXAIV23vm3c6Q-22">
          <mxGeometry width="480" height="180" as="geometry" />
        </mxCell>
        <mxCell id="TCwCIjLNXAIV23vm3c6Q-9" value="&lt;p style=&quot;margin:0px;margin-top:4px;text-align:center;&quot;&gt;&lt;i&gt;&amp;lt;&amp;lt;Interface&amp;gt;&amp;gt;&lt;/i&gt;&lt;/p&gt;&lt;p style=&quot;margin:0px;margin-top:4px;text-align:center;&quot;&gt;&lt;i&gt;&lt;b&gt;UpdateUserStrore&lt;/b&gt;&lt;/i&gt;&lt;/p&gt;&lt;hr size=&quot;1&quot;&gt;&lt;p style=&quot;margin:0px;margin-left:4px;&quot;&gt;+ FindDataByCondition()&lt;br&gt;+ UpdateData()&lt;/p&gt;" style="verticalAlign=top;align=left;overflow=fill;fontSize=12;fontFamily=Helvetica;html=1;" vertex="1" parent="TCwCIjLNXAIV23vm3c6Q-22">
          <mxGeometry x="310" y="40" width="140" height="90" as="geometry" />
        </mxCell>
        <mxCell id="TCwCIjLNXAIV23vm3c6Q-10" value="&lt;p style=&quot;margin:0px;margin-top:4px;text-align:center;&quot;&gt;&lt;i&gt;&amp;lt;&amp;lt;Interface&amp;gt;&amp;gt;&lt;/i&gt;&lt;/p&gt;&lt;p style=&quot;margin:0px;margin-top:4px;text-align:center;&quot;&gt;&lt;i&gt;&lt;b&gt;CreateUserStrore&lt;/b&gt;&lt;/i&gt;&lt;/p&gt;&lt;hr size=&quot;1&quot;&gt;&lt;p style=&quot;margin:0px;margin-left:4px;&quot;&gt;+ Create()&lt;/p&gt;" style="verticalAlign=top;align=left;overflow=fill;fontSize=12;fontFamily=Helvetica;html=1;" vertex="1" parent="TCwCIjLNXAIV23vm3c6Q-22">
          <mxGeometry x="180" y="40" width="120" height="90" as="geometry" />
        </mxCell>
        <mxCell id="TCwCIjLNXAIV23vm3c6Q-11" value="&lt;p style=&quot;margin:0px;margin-top:4px;text-align:center;&quot;&gt;&lt;i&gt;&amp;lt;&amp;lt;Interface&amp;gt;&amp;gt;&lt;/i&gt;&lt;/p&gt;&lt;p style=&quot;margin:0px;margin-top:4px;text-align:center;&quot;&gt;&lt;i&gt;&lt;b&gt;ListUserStrore&lt;/b&gt;&lt;/i&gt;&lt;/p&gt;&lt;hr size=&quot;1&quot;&gt;&lt;p style=&quot;margin:0px;margin-left:4px;&quot;&gt;+&amp;nbsp;ListDataByCondition&lt;span style=&quot;background-color: initial;&quot;&gt;()&lt;/span&gt;&lt;/p&gt;" style="verticalAlign=top;align=left;overflow=fill;fontSize=12;fontFamily=Helvetica;html=1;" vertex="1" parent="TCwCIjLNXAIV23vm3c6Q-22">
          <mxGeometry x="30" y="40" width="140" height="90" as="geometry" />
        </mxCell>
        <mxCell id="TCwCIjLNXAIV23vm3c6Q-24" value="" style="group" vertex="1" connectable="0" parent="WIyWlLk6GJQsqaUBKTNV-1">
          <mxGeometry x="67" y="90" width="240" height="179" as="geometry" />
        </mxCell>
        <mxCell id="TCwCIjLNXAIV23vm3c6Q-18" value="transport" style="shape=umlFrame;whiteSpace=wrap;html=1;" vertex="1" parent="TCwCIjLNXAIV23vm3c6Q-24">
          <mxGeometry width="240" height="179" as="geometry" />
        </mxCell>
        <mxCell id="TCwCIjLNXAIV23vm3c6Q-19" value="&lt;p style=&quot;margin:0px;margin-top:6px;text-align:center;&quot;&gt;&lt;b&gt;GinUser&lt;/b&gt;&lt;/p&gt;&lt;hr&gt;&lt;p style=&quot;margin:0px;margin-left:8px;&quot;&gt;+ ListUser: gin.HandlerFunc&lt;br&gt;+ CreateUser: gin.HandlerFunc&lt;/p&gt;" style="align=left;overflow=fill;html=1;dropTarget=0;" vertex="1" parent="TCwCIjLNXAIV23vm3c6Q-24">
          <mxGeometry x="20" y="39" width="200" height="115" as="geometry" />
        </mxCell>
        <mxCell id="TCwCIjLNXAIV23vm3c6Q-20" value="" style="shape=component;jettyWidth=8;jettyHeight=4;" vertex="1" parent="TCwCIjLNXAIV23vm3c6Q-19">
          <mxGeometry x="1" width="20" height="20" relative="1" as="geometry">
            <mxPoint x="-24" y="4" as="offset" />
          </mxGeometry>
        </mxCell>
        <mxCell id="TCwCIjLNXAIV23vm3c6Q-25" value="" style="group" vertex="1" connectable="0" parent="WIyWlLk6GJQsqaUBKTNV-1">
          <mxGeometry x="130" y="920" width="253" height="150" as="geometry" />
        </mxCell>
        <mxCell id="TCwCIjLNXAIV23vm3c6Q-12" value="storage" style="shape=umlFrame;whiteSpace=wrap;html=1;" vertex="1" parent="TCwCIjLNXAIV23vm3c6Q-25">
          <mxGeometry width="253" height="150" as="geometry" />
        </mxCell>
        <mxCell id="TCwCIjLNXAIV23vm3c6Q-13" value="sqlStore" style="swimlane;fontStyle=1;align=center;verticalAlign=top;childLayout=stackLayout;horizontal=1;startSize=26;horizontalStack=0;resizeParent=1;resizeParentMax=0;resizeLast=0;collapsible=1;marginBottom=0;" vertex="1" parent="TCwCIjLNXAIV23vm3c6Q-25">
          <mxGeometry x="73" y="20" width="160" height="112" as="geometry" />
        </mxCell>
        <mxCell id="TCwCIjLNXAIV23vm3c6Q-14" value="+ db: *gorm.DB" style="text;strokeColor=none;fillColor=none;align=left;verticalAlign=top;spacingLeft=4;spacingRight=4;overflow=hidden;rotatable=0;points=[[0,0.5],[1,0.5]];portConstraint=eastwest;" vertex="1" parent="TCwCIjLNXAIV23vm3c6Q-13">
          <mxGeometry y="26" width="160" height="26" as="geometry" />
        </mxCell>
        <mxCell id="TCwCIjLNXAIV23vm3c6Q-16" value="+ Create()" style="text;strokeColor=none;fillColor=none;align=left;verticalAlign=top;spacingLeft=4;spacingRight=4;overflow=hidden;rotatable=0;points=[[0,0.5],[1,0.5]];portConstraint=eastwest;" vertex="1" parent="TCwCIjLNXAIV23vm3c6Q-13">
          <mxGeometry y="52" width="160" height="26" as="geometry" />
        </mxCell>
        <mxCell id="TCwCIjLNXAIV23vm3c6Q-15" value="" style="line;strokeWidth=1;fillColor=none;align=left;verticalAlign=middle;spacingTop=-1;spacingLeft=3;spacingRight=3;rotatable=0;labelPosition=right;points=[];portConstraint=eastwest;strokeColor=inherit;" vertex="1" parent="TCwCIjLNXAIV23vm3c6Q-13">
          <mxGeometry y="78" width="160" height="8" as="geometry" />
        </mxCell>
        <mxCell id="TCwCIjLNXAIV23vm3c6Q-17" value="+Â ListDataByCondition()" style="text;strokeColor=none;fillColor=none;align=left;verticalAlign=top;spacingLeft=4;spacingRight=4;overflow=hidden;rotatable=0;points=[[0,0.5],[1,0.5]];portConstraint=eastwest;" vertex="1" parent="TCwCIjLNXAIV23vm3c6Q-13">
          <mxGeometry y="86" width="160" height="26" as="geometry" />
        </mxCell>
        <mxCell id="TCwCIjLNXAIV23vm3c6Q-26" value="" style="endArrow=classic;html=1;rounded=0;" edge="1" parent="WIyWlLk6GJQsqaUBKTNV-1" target="TCwCIjLNXAIV23vm3c6Q-18">
          <mxGeometry width="50" height="50" relative="1" as="geometry">
            <mxPoint x="187" y="40" as="sourcePoint" />
            <mxPoint x="230" y="40" as="targetPoint" />
          </mxGeometry>
        </mxCell>
        <mxCell id="TCwCIjLNXAIV23vm3c6Q-27" value="HTTP" style="text;align=center;fontStyle=1;verticalAlign=middle;spacingLeft=3;spacingRight=3;strokeColor=none;rotatable=0;points=[[0,0.5],[1,0.5]];portConstraint=eastwest;" vertex="1" parent="WIyWlLk6GJQsqaUBKTNV-1">
          <mxGeometry x="170" y="130" width="80" height="26" as="geometry" />
        </mxCell>
        <mxCell id="TCwCIjLNXAIV23vm3c6Q-28" value="" style="edgeStyle=orthogonalEdgeStyle;rounded=0;orthogonalLoop=1;jettySize=auto;html=1;entryX=0.426;entryY=-0.022;entryDx=0;entryDy=0;entryPerimeter=0;" edge="1" parent="WIyWlLk6GJQsqaUBKTNV-1" source="TCwCIjLNXAIV23vm3c6Q-18" target="TCwCIjLNXAIV23vm3c6Q-0">
          <mxGeometry relative="1" as="geometry" />
        </mxCell>
        <mxCell id="TCwCIjLNXAIV23vm3c6Q-29" value="" style="edgeStyle=orthogonalEdgeStyle;rounded=0;orthogonalLoop=1;jettySize=auto;html=1;entryX=0.645;entryY=-0.013;entryDx=0;entryDy=0;entryPerimeter=0;" edge="1" parent="WIyWlLk6GJQsqaUBKTNV-1" source="TCwCIjLNXAIV23vm3c6Q-0" target="TCwCIjLNXAIV23vm3c6Q-2">
          <mxGeometry relative="1" as="geometry" />
        </mxCell>
        <mxCell id="TCwCIjLNXAIV23vm3c6Q-30" value="" style="edgeStyle=orthogonalEdgeStyle;rounded=0;orthogonalLoop=1;jettySize=auto;html=1;entryX=0.657;entryY=-0.01;entryDx=0;entryDy=0;entryPerimeter=0;" edge="1" parent="WIyWlLk6GJQsqaUBKTNV-1" source="TCwCIjLNXAIV23vm3c6Q-2" target="TCwCIjLNXAIV23vm3c6Q-12">
          <mxGeometry relative="1" as="geometry" />
        </mxCell>
        <mxCell id="TCwCIjLNXAIV23vm3c6Q-31" value="Database" style="whiteSpace=wrap;html=1;" vertex="1" parent="WIyWlLk6GJQsqaUBKTNV-1">
          <mxGeometry x="220" y="1160" width="120" height="60" as="geometry" />
        </mxCell>
        <mxCell id="TCwCIjLNXAIV23vm3c6Q-32" value="" style="edgeStyle=orthogonalEdgeStyle;rounded=0;orthogonalLoop=1;jettySize=auto;html=1;" edge="1" parent="WIyWlLk6GJQsqaUBKTNV-1" source="TCwCIjLNXAIV23vm3c6Q-12" target="TCwCIjLNXAIV23vm3c6Q-31">
          <mxGeometry relative="1" as="geometry" />
        </mxCell>
      </root>
    </mxGraphModel>
  </diagram>
</mxfile>
